<?xml version="1.0" encoding="utf-8"?>
<svg viewBox="-27.622 -158.538 362.607 371.787" xmlns="http://www.w3.org/2000/svg">
  <g style="" transform="matrix(1.371845, 0, 0, -1.366588, -272.394226, 525.844971)">
    <g transform="matrix(1, 0, 0, 1, 178.425583, -39.20298)" id="g20" style="">
      <path id="path22" style="fill:#8fbcbb;fill-opacity:1;fill-rule:nonzero;stroke:none" d="M 0,495.94663 C 0,520.1136 19.8864,540 44.05337,540 h 176.21354 c 24.16697,0 44.0534,-19.8864 44.0534,-44.05337 0,0 0,0 0,0 V 319.73309 c 0,0 0,0 0,0 0,-24.16697 -19.88643,-44.0534 -44.0534,-44.0534 0,0 0,0 0,0 H 44.05337 C 19.8864,275.67969 0,295.56612 0,319.73309 c 0,0 0,0 0,0 z"/>
    </g>
    <g transform="matrix(1, 0, 0, 1, 237.685806, -220.460846)" id="g24" style="">
      <text id="text28" style="font-style: italic; font-variant: normal; font-weight: 900; font-size: 75px; font-family: &quot;Source Code Pro&quot;; writing-mode: lr-tb; fill: rgb(46, 52, 64); fill-opacity: 1; fill-rule: nonzero; stroke: none; white-space: pre;" transform="matrix(1,0,0,-1,5.40403,469.54655)"><tspan id="tspan26" y="0" x="0 45 90">sci</tspan></text>
    </g>
    <g transform="matrix(1, 0, 0, 1, 301.189941, -53.727188)" id="g30" style="">
      <path id="path32" style="fill:none;stroke:#2e3440;stroke-width:15.99989986;stroke-linecap:butt;stroke-linejoin:round;stroke-miterlimit:10;stroke-dasharray:none;stroke-opacity:1" d="M 0,522.53563 C 0,532.11631 7.88369,540 17.46437,540 c 9.58067,0 17.46436,-7.88369 17.46436,-17.46437 0,0 0,0 0,0 0,0 0,0 0,0 0,-9.58067 -7.88369,-17.46436 -17.46436,-17.46436 0,0 0,0 0,0 C 7.88369,505.07127 0,512.95496 0,522.53563 c 0,0 0,0 0,0 z"/>
    </g>
    <g transform="matrix(1, 0, 0, 1, 331.00351, -178.073685)" id="g34" style="">
      <path id="path36" style="fill:none;stroke:#2e3440;stroke-width:15.99989986;stroke-linecap:butt;stroke-linejoin:round;stroke-miterlimit:10;stroke-dasharray:none;stroke-opacity:1" d="M 0,522.53563 C 0,532.11631 7.88369,540 17.46437,540 c 9.58067,0 17.46436,-7.88369 17.46436,-17.46437 0,0 0,0 0,0 0,0 0,0 0,0 0,-9.58067 -7.88369,-17.46436 -17.46436,-17.46436 0,0 0,0 0,0 C 7.88369,505.07127 0,512.95496 0,522.53563 c 0,0 0,0 0,0 z"/>
    </g>
    <g transform="matrix(1, 0, 0, 1, 239.489975, -195.538177)" id="g38" style="">
      <path id="path40" style="fill:none;stroke:#2e3440;stroke-width:15.99989986;stroke-linecap:butt;stroke-linejoin:round;stroke-miterlimit:10;stroke-dasharray:none;stroke-opacity:1" d="M 0,522.53563 C 0,532.11631 7.88369,540 17.46437,540 c 9.58067,0 17.46436,-7.88369 17.46436,-17.46437 0,0 0,0 0,0 0,0 0,0 0,0 0,-9.58067 -7.88369,-17.46436 -17.46436,-17.46436 0,0 0,0 0,0 C 7.88369,505.07127 0,512.95496 0,522.53563 c 0,0 0,0 0,0 z"/>
    </g>
    <g transform="matrix(1, 0, 0, 1, 192.212051, -151.065948)" id="g42" style="">
      <path id="path44" style="fill:none;stroke:#2e3440;stroke-width:15.99989986;stroke-linecap:butt;stroke-linejoin:round;stroke-miterlimit:10;stroke-dasharray:none;stroke-opacity:1" d="M 0,522.53563 C 0,532.11631 7.88369,540 17.46437,540 c 9.58067,0 17.46436,-7.88369 17.46436,-17.46437 0,0 0,0 0,0 0,0 0,0 0,0 0,-9.58067 -7.88369,-17.46436 -17.46436,-17.46436 0,0 0,0 0,0 C 7.88369,505.07127 0,512.95496 0,522.53563 c 0,0 0,0 0,0 z"/>
    </g>
    <g transform="matrix(1, 0, 0, 1, 388.985382, -115.900414)" id="g46" style="">
      <path id="path48" style="fill:none;stroke:#2e3440;stroke-width:15.99989986;stroke-linecap:butt;stroke-linejoin:round;stroke-miterlimit:10;stroke-dasharray:none;stroke-opacity:1" d="M 0,522.53563 C 0,532.11631 7.88369,540 17.46437,540 c 9.58067,0 17.46436,-7.88369 17.46436,-17.46437 0,0 0,0 0,0 0,0 0,0 0,0 0,-9.58067 -7.88369,-17.46436 -17.46436,-17.46436 0,0 0,0 0,0 C 7.88369,505.07127 0,512.95496 0,522.53563 c 0,0 0,0 0,0 z"/>
    </g>
    <g transform="matrix(1, 0, 0, 1, 256.954437, -111.708992)" id="g50" style="">
      <path id="path52" style="fill:none;stroke:#2e3440;stroke-width:15.99989986;stroke-linecap:butt;stroke-linejoin:round;stroke-miterlimit:10;stroke-dasharray:none;stroke-opacity:1" d="M 0,522.53563 C 0,532.11631 7.88369,540 17.46437,540 c 9.58067,0 17.46436,-7.88369 17.46436,-17.46437 0,0 0,0 0,0 0,0 0,0 0,0 0,-9.58067 -7.88369,-17.46436 -17.46436,-17.46436 0,0 0,0 0,0 C 7.88369,505.07127 0,512.95496 0,522.53563 c 0,0 0,0 0,0 z"/>
    </g>
    <g transform="matrix(0, -0.99999, -0.99999, 0, 826.762573, 398.477295)" id="g54" style="">
      <path id="path56" style="fill:none;stroke:#2e3440;stroke-width:15.99989986;stroke-linecap:butt;stroke-linejoin:round;stroke-miterlimit:10;stroke-dasharray:none;stroke-opacity:1" d="M 0,540 41.66632,490.64936"/>
    </g>
    <g transform="matrix(0, -0.99999, 0.99999, 0, -265.575897, 393.362274)" id="g58" style="">
      <path id="path60" style="fill:none;stroke:#2e3440;stroke-width:15.99989986;stroke-linecap:butt;stroke-linejoin:round;stroke-miterlimit:10;stroke-dasharray:none;stroke-opacity:1" d="M 0,540 48.90033,522.53563"/>
    </g>
    <g transform="matrix(-0.99999, 0, 0, 0.99999, 331.003479, -195.532715)" id="g62" style="">
      <path id="path64" style="fill:none;stroke:#2e3440;stroke-width:15.99989986;stroke-linecap:butt;stroke-linejoin:round;stroke-miterlimit:10;stroke-dasharray:none;stroke-opacity:1" d="M 0,540 56.58466,522.53563"/>
    </g>
    <g transform="matrix(0, -0.99999, 0.99999, 0, -145.89418, 394.286041)" id="g66" style="">
      <path id="path68" style="fill:none;stroke:#2e3440;stroke-width:15.99989986;stroke-linecap:butt;stroke-linejoin:round;stroke-miterlimit:10;stroke-dasharray:none;stroke-opacity:1" d="M 0,540 37.47481,506.71661"/>
    </g>
    <g transform="matrix(1, 0, 0, 1, 192.212051, -83.765907)" id="g70" style="">
      <path id="path72" style="fill:none;stroke:#2e3440;stroke-width:15.99989986;stroke-linecap:butt;stroke-linejoin:round;stroke-miterlimit:10;stroke-dasharray:none;stroke-opacity:1" d="M 0,522.53563 C 0,532.11631 7.88369,540 17.46437,540 c 9.58067,0 17.46436,-7.88369 17.46436,-17.46437 0,0 0,0 0,0 0,0 0,0 0,0 0,-9.58067 -7.88369,-17.46436 -17.46436,-17.46436 0,0 0,0 0,0 C 7.88369,505.07127 0,512.95496 0,522.53563 c 0,0 0,0 0,0 z"/>
    </g>
    <g transform="matrix(1, 0, 0, 1, 227.140808, -101.23027)" id="g74" style="">
      <path id="path76" style="fill:none;stroke:#2e3440;stroke-width:15.99989986;stroke-linecap:butt;stroke-linejoin:round;stroke-miterlimit:10;stroke-dasharray:none;stroke-opacity:1" d="M 0,540 34.92876,524.40619"/>
    </g>
    <g transform="matrix(0, 0.99999, -0.99999, 0, 826.762817, 423.175751)" id="g78" style="">
      <path id="path80" style="fill:none;stroke:#2e3440;stroke-width:15.99989986;stroke-linecap:butt;stroke-linejoin:round;stroke-miterlimit:10;stroke-dasharray:none;stroke-opacity:1" d="M 0,540 33.28339,520.463"/>
    </g>
    <g transform="matrix(1, 0, 0, 1, 394.100586, -195.538177)" id="g82" style="">
      <path id="path84" style="fill:none;stroke:#2e3440;stroke-width:15.99989986;stroke-linecap:butt;stroke-linejoin:round;stroke-miterlimit:10;stroke-dasharray:none;stroke-opacity:1" d="M 0,522.53563 C 0,532.11631 7.88369,540 17.46437,540 c 9.58067,0 17.46436,-7.88369 17.46436,-17.46437 0,0 0,0 0,0 0,0 0,0 0,0 0,-9.58067 -7.88369,-17.46436 -17.46436,-17.46436 0,0 0,0 0,0 C 7.88369,505.07127 0,512.95496 0,522.53563 c 0,0 0,0 0,0 z"/>
    </g>
    <g transform="matrix(-0.99999, 0, 0, -0.99999, 394.100616, 866.992126)" id="g86" style="">
      <path id="path88" style="fill:none;stroke:#2e3440;stroke-width:15.99989986;stroke-linecap:butt;stroke-linejoin:round;stroke-miterlimit:10;stroke-dasharray:none;stroke-opacity:1" d="m 0,540 33.28339,-5.11515"/>
    </g>
    <g transform="matrix(0, -0.99999, -0.99999, 0, 762.020203, 359.120361)" id="g90" style="">
      <path id="path92" style="fill:none;stroke:#2e3440;stroke-width:15.99989986;stroke-linecap:butt;stroke-linejoin:round;stroke-miterlimit:10;stroke-dasharray:none;stroke-opacity:1" d="M 0,540 19.77369,517.42049"/>
    </g>
  </g>
</svg>