<?xml version="1.0" encoding="utf-8"?>
<svg viewBox="0 0 500 500" width="500" height="500" xmlns="http://www.w3.org/2000/svg">
  <defs>
    <clipPath id="clip0">
      <rect x="845" y="210" width="1158" height="1449"/>
    </clipPath>
  </defs>
  <g clip-path="url(#clip0)" transform="matrix(1, 0, 0, 1, -1204.782471, -670.380005)" style="opacity: 0.9;">
    <path d="M 1437.781 791.253 C 1437.781 774.81 1451.194 761.48 1467.74 761.48 C 1484.287 761.48 1497.699 774.81 1497.699 791.253 C 1497.699 807.697 1484.287 821.027 1467.74 821.027 C 1451.194 821.027 1437.781 807.697 1437.781 791.253 Z" stroke-miterlimit="8" fill-rule="evenodd" style="paint-order: fill; stroke: rgb(129, 161, 193); stroke-width: 23px;" fill="none"/>
    <path d="M 1488.768 1003.387 C 1488.768 986.944 1502.099 973.614 1518.54 973.614 C 1534.982 973.614 1548.313 986.944 1548.313 1003.387 C 1548.313 1019.831 1534.982 1033.159 1518.54 1033.159 C 1502.099 1033.159 1488.768 1019.831 1488.768 1003.387 Z" stroke-miterlimit="8" fill-rule="evenodd" style="paint-order: fill; stroke: rgb(129, 161, 193); stroke-width: 23px;" fill="none"/>
    <path d="M 1332.831 1033.159 C 1332.831 1016.716 1346.161 1003.387 1362.603 1003.387 C 1379.046 1003.387 1392.377 1016.716 1392.377 1033.159 C 1392.377 1049.602 1379.046 1062.933 1362.603 1062.933 C 1346.161 1062.933 1332.831 1049.602 1332.831 1033.159 Z" stroke-miterlimit="8" fill-rule="evenodd" style="paint-order: fill; stroke: rgb(129, 161, 193); stroke-width: 23px;" fill="none"/>
    <path d="M 1252.071 957.239 C 1252.071 940.796 1265.401 927.466 1281.844 927.466 C 1298.287 927.466 1311.618 940.796 1311.618 957.239 C 1311.618 973.682 1298.287 987.011 1281.844 987.011 C 1265.401 987.011 1252.071 973.682 1252.071 957.239 Z" stroke-miterlimit="8" fill-rule="evenodd" style="paint-order: fill; stroke: rgb(129, 161, 193); stroke-width: 23px;" fill="none"/>
    <path d="M 1587.763 897.32 C 1587.763 880.876 1601.094 867.546 1617.536 867.546 C 1633.979 867.546 1647.31 880.876 1647.31 897.32 C 1647.31 913.763 1633.979 927.093 1617.536 927.093 C 1601.094 927.093 1587.763 913.763 1587.763 897.32 Z" stroke-miterlimit="8" fill-rule="evenodd" style="paint-order: fill; stroke: rgb(129, 161, 193); stroke-width: 23px;" fill="none"/>
    <path d="M 1362.603 890.248 C 1362.603 873.805 1375.935 860.476 1392.377 860.476 C 1408.819 860.476 1422.15 873.805 1422.15 890.248 C 1422.15 906.692 1408.819 920.022 1392.377 920.022 C 1375.935 920.022 1362.603 906.692 1362.603 890.248 Z" stroke-miterlimit="8" fill-rule="evenodd" style="paint-order: fill; stroke: rgb(129, 161, 193); stroke-width: 23px;" fill="none"/>
    <path d="M 1419.718 988.77 L 1490.79 904.59" stroke-miterlimit="8" fill-rule="evenodd" style="paint-order: fill; stroke: rgb(129, 161, 193); stroke-width: 23px;" fill="none" transform="matrix(0.000017, 1, -1, 0.000017, 2401.909312, -508.590098)"/>
    <path d="M 1392.098 919.869 L 1362.31 1003.282" stroke-miterlimit="8" fill-rule="evenodd" style="paint-order: fill; stroke: rgb(129, 161, 193); stroke-width: 23px;" fill="none"/>
    <path d="M 1392.099 1033.071 L 1488.619 1003.282" stroke-miterlimit="8" fill-rule="evenodd" style="paint-order: fill; stroke: rgb(129, 161, 193); stroke-width: 23px;" fill="none" transform="matrix(-1, 0.000013, -0.000013, -1, 2880.731254, 2036.334303)"/>
    <path d="M 1596.245 918.293 L 1539.475 982.216" stroke-miterlimit="8" fill-rule="evenodd" style="paint-order: fill; stroke: rgb(129, 161, 193); stroke-width: 23px;" fill="none"/>
    <path d="M 1252.071 842.612 C 1252.071 826.169 1265.401 812.839 1281.844 812.839 C 1298.287 812.839 1311.618 826.169 1311.618 842.612 C 1311.618 859.055 1298.287 872.385 1281.844 872.385 C 1265.401 872.385 1252.071 859.055 1252.071 842.612 Z" stroke-miterlimit="8" fill-rule="evenodd" style="paint-order: fill; stroke: rgb(129, 161, 193); stroke-width: 23px;" fill="none"/>
    <path d="M 1311.618 842.612 L 1371.197 869.211" stroke-miterlimit="8" fill-rule="evenodd" style="paint-order: fill; stroke: rgb(129, 161, 193); stroke-width: 23px;" fill="none"/>
    <path d="M 1413.162 869.014 L 1446.49 812.241" stroke-miterlimit="8" fill-rule="evenodd" style="paint-order: fill; stroke: rgb(129, 161, 193); stroke-width: 23px;" fill="none"/>
    <path d="M 1596.323 1033.159 C 1596.323 1016.716 1609.654 1003.387 1626.096 1003.387 C 1642.538 1003.387 1655.869 1016.716 1655.869 1033.159 C 1655.869 1049.602 1642.538 1062.933 1626.096 1062.933 C 1609.654 1062.933 1596.323 1049.602 1596.323 1033.159 Z" stroke-miterlimit="8" fill-rule="evenodd" style="paint-order: fill; stroke: rgb(129, 161, 193); stroke-width: 23px;" fill="none"/>
    <path d="M 1596.245 1033.071 L 1539.471 1024.346" stroke-miterlimit="8" fill-rule="evenodd" style="paint-order: fill; stroke: rgb(129, 161, 193); stroke-width: 23px;" fill="none"/>
    <path d="M 1305.125 1014.399 L 1338.853 975.884" stroke-miterlimit="8" fill-rule="evenodd" style="paint-order: fill; stroke: rgb(129, 161, 193); stroke-width: 23px;" fill="none" transform="matrix(0.000017, 1, -1, 0.000017, 2317.108019, -326.864451)"/>
  </g>
</svg>