<?xml version="1.0" standalone="no"?>
<!DOCTYPE svg PUBLIC "-//W3C//DTD SVG 20010904//EN"
 "http://www.w3.org/TR/2001/REC-SVG-20010904/DTD/svg10.dtd">
<svg version="1.0" xmlns="http://www.w3.org/2000/svg"
 width="1194.000000pt" height="1194.000000pt" viewBox="0 0 1194.000000 1194.000000"
 preserveAspectRatio="xMidYMid meet">

<g transform="translate(0.000000,1194.000000) scale(0.100000,-0.100000)"
fill="#000000" stroke="none">
<path d="M6160 11574 c-247 -45 -451 -153 -616 -327 -185 -194 -285 -444 -285
-712 0 -213 51 -399 157 -567 13 -21 24 -42 24 -48 0 -8 -693 -1196 -704
-1208 -2 -1 -41 16 -87 37 -150 70 -228 86 -429 86 -135 -1 -190 -5 -240 -18
-102 -28 -214 -76 -302 -128 l-80 -48 -697 311 -697 312 -12 64 c-34 178 -130
356 -271 504 -146 153 -298 244 -504 300 -71 20 -106 23 -257 23 -150 -1 -187
-4 -259 -24 -400 -108 -694 -422 -776 -830 -24 -115 -16 -353 14 -456 100
-347 345 -614 669 -730 226 -81 500 -79 720 5 275 105 500 323 607 587 13 32
28 59 32 60 8 3 1099 -479 1110 -491 3 -3 -8 -36 -24 -73 -136 -305 -108 -686
72 -969 131 -206 287 -332 552 -445 l32 -14 -340 -949 c-186 -523 -345 -953
-351 -958 -7 -4 -20 -8 -29 -8 -49 0 -258 -80 -332 -127 l-37 -24 -363 317
c-199 174 -370 324 -380 333 -16 16 -15 20 17 81 151 285 161 629 26 927 -101
223 -319 435 -543 530 -155 65 -222 78 -417 78 -150 -1 -187 -4 -259 -24 -400
-108 -694 -422 -776 -830 -24 -115 -16 -353 14 -456 53 -184 147 -348 271
-474 205 -206 458 -313 745 -314 192 -1 337 35 507 126 l78 41 27 -25 c16 -14
177 -155 358 -314 182 -158 339 -296 349 -306 19 -18 19 -20 -27 -116 -68
-143 -97 -260 -104 -418 -4 -109 -1 -147 16 -234 86 -414 380 -722 795 -833
117 -31 365 -31 482 0 389 104 690 399 778 763 l21 89 125 40 c479 150 2143
660 2145 658 2 -2 17 -39 34 -83 64 -166 198 -341 351 -457 84 -65 262 -151
370 -180 74 -20 109 -23 260 -23 150 1 187 4 260 24 100 26 243 92 328 150 38
25 72 41 89 40 15 0 306 -44 647 -97 l618 -97 24 -84 c51 -176 137 -322 263
-449 391 -393 987 -428 1414 -82 490 396 525 1130 74 1567 -139 135 -283 218
-473 270 -90 25 -115 28 -264 27 -177 0 -245 -12 -389 -68 -284 -112 -512
-354 -611 -649 -23 -66 -23 -67 -54 -62 -53 9 -939 145 -947 145 -4 0 3 30 16
68 54 155 71 354 45 517 -16 100 -66 243 -114 328 l-42 74 643 724 c354 398
648 728 652 732 5 5 37 -8 72 -27 149 -81 304 -119 489 -119 291 0 528 100
744 311 269 265 370 642 271 1023 -9 33 -32 97 -52 142 -182 415 -619 672
-1065 626 -241 -24 -467 -131 -641 -304 -324 -322 -403 -806 -199 -1215 26
-52 48 -98 50 -102 2 -4 -1146 -1308 -1282 -1455 -9 -10 -31 -3 -101 32 -298
149 -659 145 -954 -11 -47 -25 -90 -43 -97 -40 -11 4 -1761 1478 -1950 1642
l-61 53 44 88 c140 287 142 631 5 910 -21 43 -49 96 -62 119 l-24 41 353 601
c195 331 358 602 363 602 5 0 28 -10 51 -21 239 -122 577 -137 833 -35 445
177 718 614 674 1080 -23 241 -122 454 -293 633 -93 97 -193 168 -320 228
-145 68 -226 86 -407 90 -85 2 -166 1 -180 -1z m272 -465 c206 -42 399 -225
453 -429 19 -71 19 -230 0 -303 -59 -228 -266 -410 -494 -436 -196 -22 -363
34 -491 163 -73 74 -133 166 -156 241 -25 77 -30 247 -10 325 42 167 162 314
317 388 46 23 107 45 134 50 70 14 185 14 247 1z m-5095 -1434 c192 -61 356
-236 403 -430 17 -72 14 -225 -5 -293 -51 -175 -190 -331 -355 -398 -33 -13
-95 -28 -140 -33 -203 -23 -353 30 -495 172 -134 134 -182 262 -173 455 4 75
11 113 33 167 73 183 224 320 406 369 90 24 234 20 326 -9z m3005 -1306 c29
-6 91 -29 137 -51 156 -74 287 -237 320 -396 16 -75 14 -218 -4 -285 -58 -225
-269 -411 -493 -436 -196 -21 -363 33 -491 162 -72 71 -133 166 -158 242 -24
75 -29 247 -9 326 42 166 162 313 317 387 46 23 107 45 134 50 70 14 185 14
247 1z m6263 -204 c108 -28 184 -73 270 -160 124 -123 175 -246 175 -415 0
-169 -51 -291 -175 -416 -125 -126 -251 -177 -429 -175 -162 1 -278 52 -401
176 -128 128 -175 239 -176 415 0 162 46 281 154 397 121 129 261 192 427 193
55 0 121 -7 155 -15z m-5070 -1881 c402 -339 854 -721 1007 -850 l276 -233
-34 -63 c-33 -62 -86 -209 -99 -278 l-7 -35 -1116 -344 c-614 -190 -1126 -346
-1138 -349 -17 -3 -23 4 -33 40 -23 77 -109 231 -174 313 -123 153 -317 289
-484 340 -13 3 -23 10 -23 14 0 4 153 434 339 957 l339 949 69 16 c88 20 192
60 268 103 33 19 65 35 70 35 6 1 339 -276 740 -615z m-4198 211 c192 -61 356
-236 403 -430 17 -72 14 -225 -5 -293 -51 -175 -190 -331 -355 -398 -33 -13
-95 -28 -140 -33 -203 -23 -353 30 -495 172 -134 134 -182 262 -173 455 4 75
11 113 33 167 73 183 224 320 406 369 90 24 234 20 326 -9z m6553 -1275 c172
-51 342 -216 397 -385 24 -76 29 -247 9 -326 -55 -216 -234 -390 -451 -436
-100 -21 -240 -13 -328 21 -178 67 -324 227 -372 406 -19 71 -19 230 0 303 60
229 268 411 500 437 82 9 167 2 245 -20z m-4297 -834 c204 -77 359 -266 389
-473 28 -189 -32 -365 -171 -502 -125 -125 -243 -174 -416 -174 -173 0 -291
49 -416 174 -139 137 -199 313 -171 502 34 235 233 447 467 497 22 5 87 8 145
6 83 -3 119 -9 173 -30z m7229 23 c77 -16 205 -80 266 -134 29 -26 72 -75 97
-109 78 -110 106 -199 106 -340 0 -101 -18 -180 -57 -259 -147 -292 -493 -414
-783 -276 -68 32 -100 55 -165 122 -128 129 -176 242 -176 417 0 145 43 263
140 379 79 95 216 178 327 200 68 13 183 13 245 0z"/>
<path d="M7763 3120 c-108 -43 -175 -160 -152 -268 20 -99 92 -151 210 -152
119 0 213 68 245 178 18 62 7 135 -27 183 -49 69 -179 97 -276 59z"/>
<path d="M4025 2445 c-155 -34 -269 -104 -335 -206 -48 -74 -64 -143 -58 -246
11 -197 135 -306 488 -428 211 -73 269 -116 277 -202 12 -127 -138 -201 -354
-174 -153 19 -272 69 -383 163 l-69 57 -91 -102 -91 -102 55 -50 c103 -95 284
-180 436 -204 105 -17 293 -13 397 8 273 57 429 233 410 464 -10 123 -66 212
-180 285 -58 38 -103 58 -358 156 -183 70 -246 126 -235 210 24 197 431 185
675 -20 l29 -24 70 72 c39 40 80 85 91 100 l21 26 -42 37 c-99 85 -233 148
-383 180 -86 18 -288 18 -370 0z"/>
<path d="M5920 2444 c-80 -17 -134 -36 -223 -80 -259 -128 -438 -394 -466
-692 -36 -381 143 -641 493 -717 106 -23 309 -16 414 14 113 33 273 121 325
179 18 20 18 23 -38 126 -31 58 -60 106 -65 106 -5 0 -21 -11 -37 -24 -120
-101 -244 -150 -378 -149 -187 1 -316 86 -372 247 -27 76 -25 239 4 331 53
168 190 322 337 377 171 66 355 31 489 -91 l57 -53 43 38 c23 20 68 62 101 91
l58 54 -69 67 c-83 80 -197 144 -309 172 -92 24 -264 26 -364 4z"/>
<path d="M7126 2413 c-8 -29 -46 -212 -46 -223 0 -6 91 -11 248 -12 l248 -3
-83 -350 c-45 -192 -86 -383 -92 -423 -19 -152 19 -273 114 -361 78 -71 142
-93 287 -99 136 -5 217 6 346 50 107 36 101 17 53 178 -19 66 -32 94 -42 93
-8 -1 -48 -14 -89 -28 -200 -73 -340 -10 -340 152 0 32 45 253 110 541 61 268
110 491 110 495 0 4 -184 7 -409 7 -382 0 -410 -1 -415 -17z"/>
<path d="M2982 3 c1644 -2 4332 -2 5975 0 1644 1 299 2 -2987 2 -3286 0 -4631
-1 -2988 -2z"/>
</g>
</svg>
