<?xml version="1.0" encoding="utf-8"?>
<svg viewBox="0 0 500 500" width="500" height="500" xmlns="http://www.w3.org/2000/svg">
  <defs>
    <clipPath id="clip0">
      <rect x="845" y="210" width="1158" height="1449"/>
    </clipPath>
  </defs>
  <g clip-path="url(#clip0)" transform="matrix(1, 0, 0, 1, -1204.782471, -670.380005)" style="opacity: 0.9;">
    <text style="fill: rgb(129, 161, 193); font-family: &quot;Source Code Pro Black&quot;, &quot;Source Code Pro Black_MSFontService&quot;, sans-serif; font-size: 128px; font-style: italic; font-weight: 900; paint-order: fill; white-space: pre;" x="1338.645" y="1124.512">sci</text>
    <path d="M 1437.781 744.346 C 1437.781 727.903 1451.194 714.573 1467.74 714.573 C 1484.287 714.573 1497.699 727.903 1497.699 744.346 C 1497.699 760.79 1484.287 774.12 1467.74 774.12 C 1451.194 774.12 1437.781 760.79 1437.781 744.346 Z" stroke-miterlimit="8" fill-rule="evenodd" style="paint-order: fill; stroke: rgb(129, 161, 193); stroke-width: 23px;" fill="none"/>
    <path d="M 1488.768 956.48 C 1488.768 940.037 1502.099 926.707 1518.54 926.707 C 1534.982 926.707 1548.313 940.037 1548.313 956.48 C 1548.313 972.924 1534.982 986.252 1518.54 986.252 C 1502.099 986.252 1488.768 972.924 1488.768 956.48 Z" stroke-miterlimit="8" fill-rule="evenodd" style="paint-order: fill; stroke: rgb(129, 161, 193); stroke-width: 23px;" fill="none"/>
    <path d="M 1332.831 986.252 C 1332.831 969.809 1346.161 956.48 1362.603 956.48 C 1379.046 956.48 1392.377 969.809 1392.377 986.252 C 1392.377 1002.695 1379.046 1016.026 1362.603 1016.026 C 1346.161 1016.026 1332.831 1002.695 1332.831 986.252 Z" stroke-miterlimit="8" fill-rule="evenodd" style="paint-order: fill; stroke: rgb(129, 161, 193); stroke-width: 23px;" fill="none"/>
    <path d="M 1252.071 910.332 C 1252.071 893.889 1265.401 880.559 1281.844 880.559 C 1298.287 880.559 1311.618 893.889 1311.618 910.332 C 1311.618 926.775 1298.287 940.104 1281.844 940.104 C 1265.401 940.104 1252.071 926.775 1252.071 910.332 Z" stroke-miterlimit="8" fill-rule="evenodd" style="paint-order: fill; stroke: rgb(129, 161, 193); stroke-width: 23px;" fill="none"/>
    <path d="M 1587.763 850.413 C 1587.763 833.969 1601.094 820.639 1617.536 820.639 C 1633.979 820.639 1647.31 833.969 1647.31 850.413 C 1647.31 866.856 1633.979 880.186 1617.536 880.186 C 1601.094 880.186 1587.763 866.856 1587.763 850.413 Z" stroke-miterlimit="8" fill-rule="evenodd" style="paint-order: fill; stroke: rgb(129, 161, 193); stroke-width: 23px;" fill="none"/>
    <path d="M 1362.603 843.341 C 1362.603 826.898 1375.935 813.569 1392.377 813.569 C 1408.819 813.569 1422.15 826.898 1422.15 843.341 C 1422.15 859.785 1408.819 873.115 1392.377 873.115 C 1375.935 873.115 1362.603 859.785 1362.603 843.341 Z" stroke-miterlimit="8" fill-rule="evenodd" style="paint-order: fill; stroke: rgb(129, 161, 193); stroke-width: 23px;" fill="none"/>
    <path d="M 1419.718 941.863 L 1490.79 857.683" stroke-miterlimit="8" fill-rule="evenodd" style="paint-order: fill; stroke: rgb(129, 161, 193); stroke-width: 23px;" fill="none" transform="matrix(0.000017, 1, -1, 0.000017, 2355.002269, -555.496345)"/>
    <path d="M 1392.098 872.962 L 1362.31 956.375" stroke-miterlimit="8" fill-rule="evenodd" style="paint-order: fill; stroke: rgb(129, 161, 193); stroke-width: 23px;" fill="none"/>
    <path d="M 1392.099 986.164 L 1488.619 956.375" stroke-miterlimit="8" fill-rule="evenodd" style="paint-order: fill; stroke: rgb(129, 161, 193); stroke-width: 23px;" fill="none" transform="matrix(-1, 0.000013, -0.000013, -1, 2880.730644, 1942.520277)"/>
    <path d="M 1596.245 871.386 L 1539.475 935.309" stroke-miterlimit="8" fill-rule="evenodd" style="paint-order: fill; stroke: rgb(129, 161, 193); stroke-width: 23px;" fill="none"/>
    <path d="M 1252.071 795.705 C 1252.071 779.262 1265.401 765.932 1281.844 765.932 C 1298.287 765.932 1311.618 779.262 1311.618 795.705 C 1311.618 812.148 1298.287 825.478 1281.844 825.478 C 1265.401 825.478 1252.071 812.148 1252.071 795.705 Z" stroke-miterlimit="8" fill-rule="evenodd" style="paint-order: fill; stroke: rgb(129, 161, 193); stroke-width: 23px;" fill="none"/>
    <path d="M 1311.618 795.705 L 1371.197 822.304" stroke-miterlimit="8" fill-rule="evenodd" style="paint-order: fill; stroke: rgb(129, 161, 193); stroke-width: 23px;" fill="none"/>
    <path d="M 1413.162 822.107 L 1446.49 765.334" stroke-miterlimit="8" fill-rule="evenodd" style="paint-order: fill; stroke: rgb(129, 161, 193); stroke-width: 23px;" fill="none"/>
    <path d="M 1596.323 986.252 C 1596.323 969.809 1609.654 956.48 1626.096 956.48 C 1642.538 956.48 1655.869 969.809 1655.869 986.252 C 1655.869 1002.695 1642.538 1016.026 1626.096 1016.026 C 1609.654 1016.026 1596.323 1002.695 1596.323 986.252 Z" stroke-miterlimit="8" fill-rule="evenodd" style="paint-order: fill; stroke: rgb(129, 161, 193); stroke-width: 23px;" fill="none"/>
    <path d="M 1596.245 986.164 L 1539.471 977.439" stroke-miterlimit="8" fill-rule="evenodd" style="paint-order: fill; stroke: rgb(129, 161, 193); stroke-width: 23px;" fill="none"/>
    <path d="M 1305.125 967.492 L 1338.853 928.977" stroke-miterlimit="8" fill-rule="evenodd" style="paint-order: fill; stroke: rgb(129, 161, 193); stroke-width: 23px;" fill="none" transform="matrix(0.000017, 1, -1, 0.000017, 2270.201037, -373.770636)"/>
  </g>
</svg>